<svg width="31" height="31" viewBox="0 0 31 31" fill="none" xmlns="http://www.w3.org/2000/svg">
<path d="M14.5862 0.0100501C16.522 -0.0858732 16.8113 0.50752 18.2195 1.67604C19.7781 2.96932 21.3224 4.285 22.8599 5.60336C24.1752 6.72701 25.4741 7.86965 26.7562 9.0309C27.1987 9.43259 27.653 9.82122 28.1185 10.1963C30.0564 11.7654 30.0646 11.8661 30.0771 14.345L30.0664 17.6256L30.0646 24.3343C30.0647 25.5969 30.0796 26.8717 30.0576 28.134C29.981 29.3552 28.7695 30.5925 27.5931 30.8341C26.8771 30.9586 26.0974 30.9642 25.3685 30.9426C23.4987 30.8868 21.5517 31.0163 19.6894 30.93C19.139 30.5598 19.2087 30.2091 19.2051 29.6053C19.2033 29.3132 19.2058 29.0129 19.2041 28.7206C19.1984 27.3866 19.2054 26.0526 19.2252 24.7188C19.2316 23.6846 19.3004 22.45 19.0827 21.4666C18.8491 20.4114 17.9527 19.4899 16.9464 19.1382C16.3769 18.9392 16.0931 18.9386 15.5004 18.9313C15.0092 18.9242 14.0889 18.8825 13.6348 18.9633C12.6978 19.1101 11.4681 19.9218 11.1138 20.8314C10.7733 21.7055 10.8514 23.3374 10.8483 24.2932L10.8569 29.0736C10.856 29.4883 10.892 29.9054 10.8488 30.3173C10.8217 30.5756 10.4256 30.9032 10.1856 30.9173C8.89537 30.9941 7.59211 30.9457 6.2993 30.9405L4.21636 30.9346C3.77673 30.9343 3.18114 30.9525 2.75759 30.8896C2.30527 30.8206 1.872 30.6597 1.48471 30.4169C0.749434 29.9466 0.287287 29.254 0.0689299 28.4086C-0.00625103 28.1175 0.0140909 27.077 0.0132309 26.714L0.0164202 23.3039L0.00259597 16.4994L1.60923e-05 14.359C-0.00190488 12.1632 0.165508 11.7325 1.93126 10.378C2.44192 9.98631 2.95161 9.42908 3.51813 9.03688C3.86226 8.79865 4.30727 8.22351 4.66824 7.95909C7.19956 5.83444 9.65015 3.61858 12.1805 1.49157C12.9882 0.812524 13.4875 0.223861 14.5862 0.0100501Z" fill="#243B53"/>
</svg>
