<svg width="41" height="41" viewBox="0 0 41 41" fill="none" xmlns="http://www.w3.org/2000/svg">
<g clip-path="url(#clip0_553_6518)">
<path d="M18.1633 0H22.6143C23.0266 0.131887 23.6087 0.119404 24.0501 0.194041C26.1357 0.540936 28.3828 1.37057 30.2293 2.38081C33.461 4.14893 36.4124 7.12019 38.1915 10.3227C40.0603 13.7085 40.9812 17.2371 40.7958 21.1129C40.7205 22.6798 40.6685 23.9609 40.2381 25.506C38.7331 30.9062 35.1609 35.6327 30.2705 38.4045C28.4701 39.4249 26.3929 40.21 24.3647 40.6252C23.9577 40.7081 22.3796 40.9011 22.1641 41H17.9944C17.6403 40.8346 16.5235 40.7734 16.0414 40.6685C7.662 38.8427 1.30957 31.7405 0.149771 23.2902C0.087575 22.837 0.127997 22.1865 0 21.7662V19.4284C0.094756 19.0876 0.137522 17.7881 0.226542 17.2556C0.581123 15.0562 1.28292 12.9272 2.30567 10.9482C4.30844 7.00115 7.54997 3.81961 11.5337 1.8909C13.1757 1.09826 15.0952 0.539454 16.8724 0.173782C17.2633 0.0933507 17.8006 0.131497 18.1633 0Z" fill="#E3F3FC"/>
<path d="M16.8493 8.10095C16.9178 8.09714 16.9864 8.09438 17.055 8.09258C17.5346 8.08113 18.0861 8.30827 18.1417 8.82754C18.2132 9.49591 18.1825 10.2335 18.1811 10.9094L18.1818 14.7641C19.6814 14.8001 21.2702 14.7729 22.7763 14.7715C22.797 12.9765 22.7699 11.1809 22.7837 9.38584C22.7858 9.12254 22.7959 8.86029 22.8339 8.59947C23.5657 7.92754 24.2583 7.83024 24.8536 8.7537C24.9151 9.18825 24.8877 10.4113 24.8875 10.8897C24.8986 12.1805 24.892 13.4713 24.8676 14.7618C25.9698 14.8015 27.1574 14.7295 28.2463 14.7922C28.4958 14.9791 28.6793 15.2062 28.6938 15.5287C28.7396 16.5464 28.7066 17.5712 28.7132 18.5905C28.7157 18.9534 28.7227 19.3882 28.6533 19.7401C28.5111 19.9365 28.384 20.0631 28.1887 20.2046C27.9424 20.2352 27.7499 20.2463 27.5025 20.2569C27.4999 20.9507 27.5358 22.709 27.3826 23.2849C26.7831 25.539 25.8535 26.9077 23.92 28.1342C23.174 28.5737 22.2684 28.8771 21.4121 29.0005L21.4181 32.4588C21.4187 33.0018 21.4461 33.9206 21.3879 34.4236C21.2691 34.6013 21.1918 34.7159 21.0108 34.8338C20.739 35.0131 20.4064 35.075 20.0884 35.0056C19.7069 34.9237 19.5061 34.7389 19.3026 34.4287C19.2366 32.7561 19.303 30.7366 19.2927 29.024C17.8483 28.7806 16.5152 28.0944 15.4777 27.0604C14.2971 25.8822 13.559 24.3329 13.3877 22.6739C13.3222 21.9884 13.3556 20.9737 13.3624 20.2605C12.7186 20.2685 12.6268 20.256 12.231 19.7701C12.22 19.7151 12.2107 19.6597 12.2033 19.6041C12.1386 19.1246 12.1225 15.8328 12.2248 15.4353C12.2866 15.195 12.4563 15.0043 12.6047 14.8115C13.0025 14.7513 13.6537 14.7743 14.0804 14.7763C14.747 14.7783 15.4136 14.7762 16.0801 14.7698C16.0627 14.6083 16.0655 14.4683 16.0684 14.3065C16.099 12.5707 16.0553 10.8336 16.0921 9.09804C16.1035 8.55924 16.3477 8.27524 16.8493 8.10095Z" fill="#0068C1"/>
<path d="M18.5617 20.2394L25.4908 20.2388C25.3668 21.7018 25.6758 23.0859 24.8653 24.5245C24.2757 25.5711 23.1855 26.5302 22.0315 26.8794C21.4717 27.0378 20.9967 27.1526 20.4133 27.1542C19.0287 27.1618 17.6979 26.6187 16.7139 25.6445C15.1343 24.0576 15.2829 22.2567 15.2898 20.2471L18.5617 20.2394Z" fill="#E3F3FC"/>
<path d="M14.0615 16.6981L26.8685 16.6914L26.8565 18.4016C26.4622 18.3711 25.8322 18.3857 25.4186 18.3837L22.5765 18.3811L14.0879 18.3777L14.0615 16.6981Z" fill="#E3F3FC"/>
</g>
<defs>
<clipPath id="clip0_553_6518">
<rect width="41" height="41" fill="white"/>
</clipPath>
</defs>
</svg>
